<?xml version="1.0" encoding="UTF-8"?>
<!DOCTYPE svg PUBLIC "-//W3C//DTD SVG 1.1//EN" "http://www.w3.org/Graphics/SVG/1.1/DTD/svg11.dtd">
<!-- Creator: CorelDRAW X8 -->
<svg xmlns="http://www.w3.org/2000/svg" xml:space="preserve" width="50mm" height="10mm" version="1.1" style="shape-rendering:geometricPrecision; text-rendering:geometricPrecision; image-rendering:optimizeQuality; fill-rule:evenodd; clip-rule:evenodd"
viewBox="0 0 5000 1000"
 xmlns:xlink="http://www.w3.org/1999/xlink">
 <defs>
  <style type="text/css">
   <![CDATA[
    .fil1 {fill:#FF6600}
    .fil0 {fill:#171717;fill-rule:nonzero}
   ]]>
  </style>
 </defs>
 <g id="Camada_x0020_1">
  <metadata id="CorelCorpID_0Corel-Layer"/>
  <g id="_2010642765552">
   <path class="fil0" d="M2837 412c12,12 25,16 39,12 14,-3 26,-12 37,-25 11,-13 20,-29 26,-48 7,-20 8,-39 5,-59 -3,-19 -13,-37 -28,-53 -15,-17 -38,-29 -69,-38 -45,-11 -86,-11 -122,0 -36,10 -67,27 -93,51 -26,25 -46,54 -61,88 -15,34 -24,69 -25,106 -2,32 1,56 9,73 7,16 19,29 35,39 16,10 37,18 61,26 25,7 53,17 85,31 19,8 29,16 31,25 2,8 -2,15 -13,19 -11,4 -28,4 -51,1 -23,-4 -51,-15 -84,-32 -9,-5 -20,-4 -30,2 -10,6 -18,14 -24,25 -6,12 -8,24 -6,37 1,14 9,25 24,33 22,15 46,26 70,33 25,7 48,11 71,11 23,1 45,-1 65,-6 20,-6 38,-13 54,-23 15,-9 27,-21 36,-35 10,-14 15,-29 16,-45 1,-28 -4,-49 -16,-65 -11,-15 -26,-27 -44,-35 -19,-8 -38,-14 -60,-19 -21,-4 -41,-9 -60,-15 -18,-5 -33,-13 -45,-23 -11,-11 -17,-26 -16,-46 1,-10 3,-20 7,-32 4,-11 9,-22 16,-31 7,-10 16,-18 26,-24 10,-7 22,-10 35,-10 14,0 28,4 45,12 16,8 34,21 54,40zm32 50c-18,-17 -35,-30 -49,-37 -15,-8 -28,-12 -40,-12 -12,0 -22,3 -31,9 -8,5 -16,12 -22,21 -6,8 -10,18 -14,28 -3,10 -5,19 -5,28 -1,3 -1,7 0,12 8,3 17,5 26,8 10,2 19,5 29,7 13,3 26,7 39,10 14,4 26,8 38,13 11,5 22,12 32,19 10,8 18,18 24,29 16,9 29,22 39,38 10,17 14,39 13,67 -1,18 -6,34 -16,49 -9,14 -22,27 -38,38 -16,10 -34,19 -55,25 -21,6 -43,9 -67,9 -25,0 -51,-4 -77,-11 -26,-8 -52,-19 -78,-35 -14,-9 -23,-20 -27,-33 -3,-1 -5,-2 -7,-4 -3,-1 -5,-2 -7,-4 -11,-7 -19,-15 -23,-25 -5,-9 -7,-18 -7,-28 0,-11 2,-21 7,-31 5,-10 11,-18 19,-25 8,-6 17,-11 26,-13 9,-2 18,-1 27,3 22,12 42,21 60,26 17,5 32,7 45,7 -6,-2 -12,-4 -18,-6 -6,-2 -11,-4 -16,-5 -28,-9 -51,-18 -69,-27 -19,-9 -32,-23 -41,-41 -10,-6 -18,-12 -25,-19 -7,-6 -13,-15 -17,-24 -5,-10 -8,-22 -10,-35 -1,-14 -2,-30 0,-48 1,-33 8,-66 20,-97 13,-32 30,-60 51,-85 22,-25 47,-45 77,-60 30,-15 64,-22 101,-22 23,0 46,3 67,8 22,7 40,15 55,26 14,11 26,24 35,38 19,12 34,28 44,45 10,18 15,36 15,54 0,16 -3,31 -9,46 -5,16 -12,29 -21,41 -9,12 -18,22 -29,29 -11,7 -22,10 -33,10 -6,0 -13,-1 -20,-3 -6,-3 -12,-7 -18,-13l0 0z"/>
   <path id="1" class="fil0" d="M3365 610c-9,10 -20,18 -32,26 -13,7 -26,13 -40,18 -15,5 -30,9 -45,11 -16,3 -31,4 -46,4 -4,-15 -7,-30 -9,-45 -2,-16 -4,-32 -5,-47 14,3 28,5 40,5 12,1 21,0 28,-2 11,-3 20,-8 27,-15 7,-8 11,-16 14,-25 3,-9 5,-19 4,-29 0,-10 -2,-19 -6,-27 -3,-8 -8,-14 -14,-19 -6,-5 -13,-6 -21,-5 -16,2 -29,4 -41,6 -12,1 -23,2 -32,2 0,-23 -1,-45 -2,-68 -1,-22 -4,-45 -7,-68 14,1 28,3 42,7 14,3 27,8 40,14 13,6 24,12 35,19 11,7 20,14 28,21 17,15 33,24 47,25 15,1 27,-3 37,-11 10,-9 18,-21 22,-36 5,-16 6,-33 4,-51 -3,-17 -10,-35 -21,-53 -11,-18 -28,-33 -49,-46 0,-1 -1,-1 -1,-1 -32,-16 -64,-25 -98,-28 -33,-2 -65,2 -95,13 -29,10 -57,26 -81,47 -25,21 -44,47 -57,78 -4,7 -5,14 -5,22 1,8 3,15 7,20 3,6 8,9 14,9 7,1 14,-3 22,-10 4,-4 8,-7 11,-10 4,-3 8,-6 13,-8 0,36 -2,69 -6,100 -5,31 -10,61 -15,90 -5,28 -8,56 -10,83 -1,27 2,54 9,82 3,9 7,17 13,23 0,0 0,0 0,1 9,10 21,18 38,24 16,6 35,10 56,12 21,2 43,2 66,1 23,-2 46,-5 67,-10 22,-5 41,-11 59,-19 17,-8 31,-17 41,-27 12,-13 18,-28 20,-46 2,-17 0,-32 -6,-45 -5,-14 -13,-22 -24,-26 -11,-4 -23,0 -36,14zm-9 -8c12,-13 24,-19 37,-19 11,0 20,4 28,12 8,7 14,17 18,30 14,1 25,9 33,23 9,15 13,31 13,49 0,11 -2,22 -5,33 -4,12 -10,22 -20,32 -8,9 -20,18 -35,25 -16,8 -33,14 -51,20 -19,5 -38,9 -59,12 -21,2 -41,4 -61,4 -29,0 -57,-4 -82,-11 -26,-7 -45,-18 -57,-33 -5,-5 -8,-11 -12,-19 -6,-2 -11,-6 -16,-9 -5,-4 -9,-8 -13,-13 -7,-7 -11,-16 -14,-27 -4,-12 -6,-24 -8,-37 -1,-12 -2,-24 -2,-37 0,-21 1,-41 4,-60 3,-20 6,-40 10,-61 3,-14 5,-27 7,-41 3,-14 4,-28 6,-43 -6,-3 -11,-9 -15,-16 -3,-7 -6,-15 -6,-23 -2,0 -5,0 -8,0 -7,0 -13,-2 -17,-6 -5,-4 -9,-10 -12,-17 -3,-7 -4,-14 -4,-22 0,-8 1,-16 4,-23 10,-21 24,-41 40,-59 16,-17 35,-33 55,-46 20,-13 41,-23 64,-30 23,-7 46,-11 69,-11 42,0 83,11 122,31 11,7 21,14 29,22 8,9 16,17 22,26 24,16 41,35 51,57 10,22 16,44 16,65 0,12 -2,24 -5,35 -4,11 -8,21 -15,29 -6,8 -13,15 -22,20 -8,5 -17,7 -28,7 -19,0 -39,-9 -61,-29 -14,-11 -32,-22 -55,-33 -22,-12 -44,-19 -68,-22 1,11 2,22 4,32 1,11 1,21 2,32 3,-1 6,-1 9,-2 3,0 6,-1 10,-2 13,-2 24,1 33,9 9,9 15,19 19,32 14,1 24,9 32,22 8,13 12,28 12,44 0,17 -4,33 -12,48 -9,16 -23,26 -42,31l0 -1c-15,5 -34,5 -58,1 0,3 0,7 1,10 0,4 0,7 1,11 22,-4 43,-10 63,-18 20,-9 36,-20 49,-34zm-203 -484c-4,2 -3,5 5,8 7,3 17,5 30,8 13,2 27,3 43,4 16,1 31,0 45,-2 13,-2 25,-6 33,-12 9,-6 13,-14 11,-24 -2,-11 -7,-19 -15,-23 -9,-4 -19,-5 -30,-4 -12,0 -24,3 -37,7 -13,5 -25,10 -37,15 -12,5 -23,10 -32,14 -8,5 -14,8 -16,9zm-6 -11c3,-1 9,-5 19,-9 10,-5 21,-11 35,-16 13,-6 27,-11 41,-16 15,-4 28,-6 40,-6 19,0 32,5 41,16 13,0 23,3 32,8 9,6 15,16 18,30 1,9 -1,17 -5,24 -5,7 -12,12 -20,16 -9,4 -19,7 -30,9 -11,2 -23,3 -35,3 -21,0 -40,-2 -58,-6 -17,-5 -29,-10 -37,-16 -19,-4 -34,-10 -42,-17 -9,-7 -8,-14 1,-20z"/>
   <path id="2" class="fil0" d="M3784 395c2,27 0,49 -6,65 -6,15 -14,27 -24,34 -11,8 -23,12 -36,13 -13,1 -25,0 -36,-2 2,-29 3,-58 3,-86 1,-28 -2,-56 -9,-83 0,-1 -1,-2 -1,-2 0,0 0,-1 0,-2 12,-5 24,-8 36,-8 13,-1 24,2 35,7 10,4 19,12 26,23 6,11 11,25 12,41zm51 171c13,-7 25,-15 36,-25 11,-10 21,-22 30,-36 9,-14 16,-30 21,-48 4,-18 7,-38 7,-61 0,-28 -4,-55 -11,-80 -8,-25 -19,-46 -34,-65 -16,-18 -36,-33 -60,-44 -24,-10 -52,-15 -85,-15 -35,0 -66,5 -93,16 -27,11 -49,27 -68,48 -18,21 -33,46 -43,75 -10,30 -16,63 -17,99 -1,18 2,32 10,40 8,9 17,14 26,14 10,0 20,-3 29,-10 9,-8 14,-18 16,-32 3,-22 9,-41 19,-58 -2,26 -6,52 -13,79 -6,27 -13,54 -19,82 -6,27 -11,55 -16,83 -4,27 -5,54 -2,79 1,16 6,28 15,37 9,9 19,16 31,20 12,4 25,5 38,4 13,-1 24,-3 34,-8 10,-5 17,-12 22,-20 4,-9 4,-19 -1,-31 -10,-21 -17,-41 -20,-62 -4,-21 -6,-42 -7,-63 20,3 40,8 59,13 20,5 37,13 52,23 14,10 26,22 34,36 8,15 11,32 9,53 -1,9 1,18 6,26 5,8 11,15 19,21 9,5 18,9 27,11 10,3 20,3 29,1 9,-2 16,-7 22,-14 7,-8 10,-18 11,-32 2,-16 0,-32 -5,-47 -6,-16 -14,-30 -24,-43 -10,-13 -23,-25 -37,-36 -15,-11 -30,-21 -47,-30zm-96 -387c39,0 72,7 98,21 27,13 49,32 65,55 28,19 48,45 61,77 13,32 19,67 19,105 0,41 -7,75 -22,102 -14,27 -32,48 -54,64 8,8 14,16 20,23 24,18 43,39 56,63 14,24 21,49 20,75 -3,20 -9,35 -20,45 -11,9 -24,14 -39,14 -15,0 -29,-5 -44,-15 -14,-9 -24,-21 -31,-35 -12,-6 -23,-15 -32,-27 -10,-12 -14,-25 -14,-39 1,-15 -2,-29 -8,-41 -11,-6 -24,-12 -38,-16 -13,-4 -28,-8 -42,-10 1,17 3,35 6,53 4,17 10,35 19,52 5,12 7,23 5,32 -2,10 -7,18 -15,24 -7,7 -16,12 -27,15 -12,4 -23,6 -35,6 -18,0 -34,-4 -50,-12 -16,-9 -28,-21 -35,-39 -13,-5 -23,-13 -32,-24 -8,-10 -13,-23 -15,-39 0,-4 -1,-9 -1,-13 0,-5 0,-9 0,-14 0,-24 3,-49 7,-74 4,-25 9,-49 15,-74 -14,-7 -23,-19 -28,-37 -12,-2 -22,-8 -31,-19 -9,-11 -13,-27 -12,-48 2,-38 8,-72 19,-103 11,-31 26,-57 46,-79 19,-22 43,-38 71,-50 28,-12 61,-18 98,-18zm33 217c-1,-8 -2,-14 -3,-18 -3,-1 -5,-1 -7,-1 -2,-1 -5,-1 -7,-1 -7,0 -15,2 -24,4 5,26 7,54 7,85l0 23c11,-5 20,-15 27,-29 7,-14 10,-35 7,-63z"/>
   <path id="3" class="fil0" d="M4377 590c-15,14 -31,24 -48,32 -16,8 -34,13 -51,17 -4,-21 -7,-43 -9,-65 -1,-22 -2,-45 -2,-68 0,-23 0,-47 0,-71 0,-25 -2,-49 -4,-73 19,10 34,21 46,31 17,16 33,24 47,25 14,1 27,-3 37,-11 11,-9 18,-21 23,-36 4,-16 5,-33 3,-51 -3,-17 -9,-35 -21,-53 -11,-18 -27,-33 -48,-46 -1,0 -1,0 -1,0 -1,-1 -1,-1 -2,-1 -31,-16 -63,-25 -96,-27 -33,-2 -65,2 -95,12 -30,10 -57,26 -82,47 -24,22 -43,48 -57,78 -3,7 -4,15 -4,23 1,8 3,14 6,20 4,5 9,8 15,9 6,0 13,-3 22,-11 17,-16 36,-27 56,-32 20,-6 40,-7 60,-5 2,29 1,56 -2,82 -2,25 -5,50 -9,74 -4,23 -7,46 -11,69 -3,22 -5,44 -5,66 -13,-6 -24,-13 -34,-21 -17,-16 -32,-26 -46,-28 -14,-3 -25,-1 -35,5 -9,6 -16,15 -19,27 -4,13 -4,27 -1,43 3,15 11,31 22,47 12,16 28,30 50,43 1,0 2,0 2,1 31,16 63,25 97,27 33,2 64,-2 94,-13 30,-10 58,-26 82,-47 24,-21 43,-46 57,-77 4,-7 5,-15 5,-23 -1,-8 -3,-15 -6,-20 -3,-5 -8,-8 -15,-8 -6,-1 -13,2 -21,9zm-8 -9c9,-8 17,-12 25,-14 8,-1 14,0 20,3 5,3 9,8 13,16 3,7 5,14 5,22 8,-2 15,-2 21,2 7,4 11,9 15,16 3,8 4,16 4,25 0,9 -1,18 -5,27 -11,23 -24,43 -40,61 -16,18 -34,33 -54,45 -20,13 -42,22 -65,29 -23,6 -46,10 -70,10 -42,0 -82,-11 -122,-31l3 2c-26,-15 -46,-33 -59,-52 -23,-18 -40,-36 -50,-56 -10,-20 -15,-39 -15,-56 0,-19 5,-35 16,-49 10,-13 24,-19 41,-19 10,0 21,2 32,8 11,5 23,13 35,25 5,4 9,7 14,10 1,-16 3,-32 5,-48 2,-16 5,-33 7,-49 3,-18 6,-37 9,-57 2,-20 4,-40 5,-61 -20,6 -38,17 -54,31 -11,9 -21,13 -30,13 -10,0 -18,-4 -24,-12 -6,-9 -9,-18 -9,-29 -2,0 -4,0 -8,0 -7,0 -13,-2 -18,-6 -5,-4 -8,-10 -11,-17 -3,-7 -4,-14 -4,-22 0,-8 1,-16 5,-23 10,-23 23,-43 39,-61 16,-18 35,-33 55,-45 20,-13 41,-23 64,-29 23,-7 47,-10 71,-10 41,0 83,11 125,33 19,13 35,28 46,44 24,17 41,36 52,58 10,22 15,44 15,65 0,12 -1,24 -5,35 -3,11 -8,21 -14,30 -6,8 -14,15 -22,20 -9,4 -19,7 -29,7 -9,0 -19,-2 -29,-7 -11,-5 -21,-12 -32,-22 -7,-6 -14,-12 -23,-18 1,16 1,32 1,49 0,16 0,32 0,48 0,16 0,31 0,46 0,15 1,30 2,45 16,-8 31,-18 47,-32zm-9 -368c-4,-2 -6,-4 -6,-4 3,0 4,0 5,1 0,1 1,2 1,3zm35 37c0,0 2,1 6,4 0,-1 -1,-2 -1,-3 -1,-1 -2,-1 -5,-1z"/>
   <path id="4" class="fil0" d="M4841 610c-9,10 -20,18 -32,26 -12,7 -26,13 -40,18 -15,5 -30,9 -45,11 -16,3 -31,4 -46,4 -4,-15 -7,-30 -9,-45 -2,-16 -3,-32 -4,-47 14,3 27,5 39,5 12,1 21,0 28,-2 11,-3 20,-8 27,-15 7,-8 12,-16 15,-25 3,-9 4,-19 3,-29 0,-10 -2,-19 -5,-27 -4,-8 -8,-14 -14,-19 -6,-5 -13,-6 -21,-5 -16,2 -30,4 -42,6 -12,1 -23,2 -32,2 0,-23 -1,-45 -2,-68 -1,-22 -3,-45 -7,-68 14,1 28,3 42,7 14,3 27,8 40,14 13,6 25,12 35,19 11,7 20,14 28,21 17,15 33,24 47,25 15,1 27,-3 37,-11 10,-9 18,-21 23,-36 5,-16 6,-33 3,-51 -3,-17 -10,-35 -21,-53 -11,-18 -27,-33 -48,-46 -1,-1 -2,-1 -2,-1 -32,-16 -64,-25 -97,-28 -34,-2 -65,2 -95,13 -30,10 -57,26 -82,47 -24,21 -44,47 -57,78 -3,7 -5,14 -4,22 0,8 2,15 6,20 3,6 8,9 15,9 6,1 13,-3 21,-10 4,-4 8,-7 12,-10 3,-3 8,-6 12,-8 0,36 -2,69 -6,100 -5,31 -10,61 -15,90 -4,28 -8,56 -9,83 -2,27 1,54 9,82 2,9 6,17 12,23 0,0 1,0 1,1 8,10 20,18 37,24 17,6 35,10 56,12 21,2 43,2 67,1 23,-2 45,-5 67,-10 21,-5 41,-11 58,-19 17,-8 31,-17 41,-27 12,-13 19,-28 20,-46 2,-17 0,-32 -5,-45 -6,-14 -14,-22 -25,-26 -11,-4 -23,0 -36,14zm-9 -8c12,-13 25,-19 38,-19 10,0 19,4 27,12 8,7 14,17 19,30 13,1 24,9 33,23 8,15 12,31 12,49 0,11 -1,22 -5,33 -4,12 -10,22 -19,32 -9,9 -21,18 -36,25 -15,8 -32,14 -51,20 -18,5 -38,9 -59,12 -20,2 -41,4 -60,4 -30,0 -58,-4 -83,-11 -26,-7 -44,-18 -57,-33 -4,-5 -8,-11 -11,-19 -6,-2 -12,-6 -17,-9 -5,-4 -9,-8 -13,-13 -6,-7 -11,-16 -14,-27 -4,-12 -6,-24 -8,-37 -1,-12 -2,-24 -2,-37 0,-21 2,-41 5,-60 2,-20 6,-40 9,-61 3,-14 5,-27 8,-41 2,-14 4,-28 5,-43 -6,-3 -10,-9 -14,-16 -4,-7 -6,-15 -7,-23 -2,0 -5,0 -8,0 -7,0 -12,-2 -17,-6 -5,-4 -9,-10 -12,-17 -2,-7 -4,-14 -4,-22 0,-8 2,-16 4,-23 11,-21 24,-41 40,-59 17,-17 35,-33 55,-46 20,-13 42,-23 64,-30 23,-7 46,-11 69,-11 42,0 83,11 122,31 11,7 21,14 29,22 9,9 16,17 22,26 24,16 41,35 51,57 11,22 16,44 16,65 0,12 -2,24 -5,35 -3,11 -8,21 -14,29 -7,8 -14,15 -22,20 -9,5 -18,7 -29,7 -19,0 -39,-9 -61,-29 -14,-11 -32,-22 -54,-33 -22,-12 -45,-19 -68,-22 1,11 2,22 3,32 1,11 2,21 2,32 3,-1 6,-1 9,-2 3,0 6,-1 10,-2 13,-2 24,1 33,9 9,9 16,19 19,32 14,1 25,9 33,22 8,13 12,28 12,44 0,17 -5,33 -13,48 -9,16 -22,26 -41,31l0 -1c-16,5 -35,5 -58,1 0,3 0,7 0,10 0,4 1,7 1,11 23,-4 44,-10 64,-18 19,-9 36,-20 48,-34z"/>
   <path class="fil0" d="M1572 193c-2,21 -2,43 0,66 3,23 6,46 10,70 4,24 8,47 13,71 5,24 9,47 12,70 0,5 1,10 1,15 0,5 0,10 0,15 -21,-26 -40,-56 -58,-89 -18,-33 -34,-66 -48,-98 -14,-32 -25,-61 -34,-87 -8,-26 -12,-46 -12,-58 -2,-13 -9,-22 -22,-29 -13,-7 -27,-9 -41,-8 -15,2 -29,7 -42,17 -12,11 -20,25 -21,45 -1,14 -3,33 -4,55 -2,23 -4,48 -5,75 -2,27 -3,56 -4,86 -1,30 -1,60 0,89 1,29 2,57 5,84 2,26 6,49 12,68 3,12 10,23 21,32 10,9 22,15 36,20 13,4 27,7 41,7 14,0 26,-2 37,-6 10,-4 17,-11 22,-20 4,-9 4,-21 -2,-35 -31,-74 -51,-147 -60,-220 15,34 32,68 49,101 17,33 34,62 51,89 22,34 43,58 61,71 18,13 35,20 53,21 8,0 17,-2 26,-4 9,-3 17,-6 24,-11 8,-5 14,-11 18,-19 5,-8 8,-17 9,-28 2,-20 2,-39 0,-57 -1,-17 -4,-35 -7,-52 -3,-17 -6,-35 -9,-53 -4,-18 -7,-37 -10,-59 -2,-39 -1,-79 3,-118 4,-40 15,-79 33,-118 6,-12 6,-22 0,-30 -5,-9 -14,-15 -25,-20 -11,-5 -24,-8 -39,-9 -15,-1 -29,1 -43,5 -13,4 -25,11 -35,20 -10,9 -15,21 -16,36zm-13 -1c1,-12 5,-23 11,-33 6,-9 14,-16 23,-22 10,-6 20,-11 32,-13 11,-3 23,-5 34,-5 10,0 21,2 31,4 10,2 19,5 27,9 8,5 14,10 20,16 5,6 8,13 10,20 15,6 27,15 35,27 8,12 8,26 1,42 -15,31 -24,61 -29,92 -6,31 -8,62 -8,93 0,7 0,15 0,22 0,8 1,15 1,23 3,15 5,28 7,41 2,13 5,26 7,38 4,19 7,37 10,54 2,18 3,38 3,59 0,5 0,10 0,15 0,5 0,11 0,16 -2,13 -5,23 -11,33 -5,9 -12,17 -21,23 -8,6 -18,10 -28,13 -10,2 -20,4 -30,4 -17,-1 -33,-6 -49,-15 -17,-9 -34,-25 -52,-48 -10,-8 -21,-18 -31,-30 -11,-12 -22,-27 -33,-45 -1,0 -1,-1 -1,-1 3,10 7,19 11,29 4,10 8,20 12,31 6,14 8,26 6,35 -2,10 -6,18 -13,25 -6,6 -15,10 -26,13 -10,3 -22,5 -34,5 -11,0 -21,-1 -32,-4 -11,-2 -22,-6 -31,-11 -10,-5 -19,-11 -27,-18 -8,-7 -14,-15 -18,-24 -11,-6 -21,-14 -29,-22 -7,-8 -13,-18 -15,-30l0 0c-7,-24 -12,-53 -14,-87 -2,-33 -4,-68 -4,-105 0,-27 1,-53 2,-80 1,-27 2,-52 4,-76 1,-23 2,-45 4,-65 1,-19 2,-35 3,-48 2,-13 5,-24 10,-33 5,-10 12,-17 19,-23 8,-6 17,-11 26,-13 9,-3 19,-4 28,-4 16,0 30,4 43,11 13,8 21,19 24,34 11,3 20,9 28,16 7,7 12,16 14,27 0,8 2,19 5,34 4,15 10,32 17,50 7,19 15,40 24,61 10,22 20,44 31,66 -1,-6 -2,-12 -3,-19 -2,-7 -3,-13 -4,-20 -4,-24 -9,-51 -13,-80 -5,-29 -7,-56 -7,-79 0,-4 0,-9 0,-14 0,-5 0,-9 0,-14z"/>
   <path id="1" class="fil0" d="M1913 515c1,-26 4,-49 9,-71 5,-23 11,-42 19,-58 8,-16 18,-28 30,-37 11,-9 24,-14 38,-14 14,0 26,6 38,17 11,11 21,26 29,45 8,19 13,42 18,68 4,26 5,54 5,84 -8,1 -20,1 -34,1 -14,0 -30,-1 -48,-3 -17,-3 -35,-7 -53,-12 -19,-5 -35,-12 -51,-20zm89 -381c-30,1 -55,7 -76,20 -22,13 -39,30 -54,51 -14,21 -26,45 -34,73 -9,27 -15,56 -19,85 -4,29 -6,59 -7,89 -1,30 0,58 1,84 2,26 3,49 6,69 2,19 5,34 7,44 4,19 12,33 24,43 12,10 25,16 37,16 13,1 23,-3 32,-13 8,-9 10,-24 7,-45 -4,-15 -6,-29 -8,-44 11,3 23,6 39,8 15,3 31,4 47,5 16,0 33,0 49,-1 16,-1 30,-4 43,-8 -1,6 -2,11 -3,17 0,5 -1,10 -2,16 -5,24 -2,41 6,51 9,11 20,16 32,16 13,-1 25,-6 38,-17 13,-10 22,-25 26,-44 3,-13 6,-30 9,-52 3,-21 6,-45 7,-72 2,-27 2,-55 2,-85 -1,-30 -3,-60 -8,-89 -5,-29 -12,-57 -21,-83 -10,-27 -22,-50 -38,-70 -16,-20 -36,-35 -59,-47 -23,-12 -51,-17 -83,-17zm0 -12c36,-1 67,6 92,20 26,14 47,32 64,55 20,15 38,34 51,57 14,23 25,48 33,76 8,27 14,56 17,86 3,30 5,60 5,88 0,21 -1,40 -2,59 -1,19 -2,36 -4,53 -1,16 -3,31 -5,44 -3,13 -5,24 -7,32 -5,23 -16,41 -31,53 -15,12 -31,18 -47,18 -11,0 -21,-4 -31,-10 -9,-7 -15,-18 -18,-32 -11,-2 -20,-6 -28,-14 -8,-8 -13,-20 -14,-35l-14 0c-15,0 -31,-1 -47,-2 -15,-2 -30,-4 -42,-7 0,4 1,8 2,13 1,4 2,9 3,12 5,25 2,44 -9,56 -10,12 -24,18 -39,18 -13,0 -26,-4 -39,-12 -13,-9 -23,-20 -30,-35 -11,-5 -21,-13 -30,-24 -10,-10 -16,-24 -18,-39 -3,-14 -6,-37 -9,-68 -4,-32 -5,-68 -5,-107 0,-27 1,-53 3,-81 2,-27 6,-54 12,-80 6,-27 13,-51 23,-75 10,-23 22,-44 37,-61 15,-18 33,-31 54,-42 21,-10 45,-16 73,-16zm85 416c0,-31 -3,-59 -8,-84 -5,-25 -11,-47 -20,-64 -3,-1 -6,-2 -9,-2 -22,0 -40,13 -54,38 -14,26 -23,58 -27,98 18,5 37,8 55,11 18,2 34,3 48,3 6,0 9,0 9,0 1,1 2,0 6,0z"/>
   <path class="fil0" d="M353 128c24,6 43,15 59,25 14,12 26,24 34,37 21,13 35,28 43,46 9,18 14,37 14,55 0,17 -3,32 -9,47 -6,15 -13,29 -21,40 -8,12 -18,22 -29,28 -11,7 -22,11 -33,11 -7,0 -13,-1 -20,-4 -6,-2 -12,-7 -18,-11 -9,-8 -16,-15 -26,-22 -9,-5 -16,-11 -24,-15 2,18 6,39 11,62 3,21 8,43 13,63 8,33 15,67 21,101 7,35 9,67 6,99 -1,13 -4,24 -10,33 -5,9 -12,17 -21,22 -9,6 -18,11 -28,14 -10,3 -21,4 -32,4 -18,0 -35,-4 -50,-13 -15,-8 -24,-19 -27,-34 -15,-5 -28,-14 -36,-27 -7,-11 -7,-27 1,-44 10,-21 18,-44 21,-66 3,-22 5,-44 5,-67 0,-13 -1,-25 -1,-37 -1,-13 -2,-25 -3,-38 0,-7 -1,-16 -1,-25 0,-9 -1,-16 -1,-25 -6,6 -11,14 -15,20 -5,8 -9,15 -11,23 -4,10 -10,18 -17,23 -7,5 -14,6 -23,6 -11,0 -21,-3 -31,-11 -9,-9 -14,-18 -16,-29 -11,-2 -20,-8 -28,-16 -9,-9 -13,-20 -13,-32 0,-33 6,-65 17,-95 11,-31 27,-57 49,-80 21,-23 47,-42 77,-56 30,-14 64,-20 100,-20 23,0 47,2 73,8l0 0zm-3 13c-44,-12 -85,-13 -123,-3 -36,9 -67,24 -94,46 -26,23 -47,50 -62,83 -15,33 -22,68 -22,104 0,8 3,15 7,21 6,7 12,11 19,12 6,2 13,2 21,-1 7,-2 13,-9 16,-20 4,-8 9,-17 15,-28 6,-9 12,-18 20,-27 9,-8 18,-14 27,-21 11,-6 22,-10 35,-12 -6,29 -7,58 -6,88 2,30 4,59 5,89 2,30 1,60 -2,90 -2,30 -10,59 -24,88 -5,11 -6,21 -1,31 4,8 12,15 21,20 10,5 21,8 34,9 14,0 26,-1 39,-5 11,-4 22,-11 31,-20 8,-9 14,-22 15,-37 3,-27 1,-56 -4,-86 -5,-30 -11,-59 -17,-89 -8,-30 -15,-59 -21,-88 -6,-28 -9,-56 -10,-82 22,10 46,25 71,48 12,12 25,16 39,12 13,-4 27,-13 38,-25 11,-14 20,-29 27,-48 5,-20 6,-39 3,-58 -3,-20 -12,-38 -28,-54 -14,-17 -37,-29 -69,-37z"/>
   <path class="fil1" d="M747 313c60,3 86,65 84,135 -2,68 -41,146 -106,146 -66,-1 -104,-68 -96,-150 9,-82 58,-134 118,-131zm-43 151c8,-48 33,-80 56,-71 24,8 36,54 28,102 -7,48 -32,80 -56,72 -23,-8 -35,-54 -28,-103z"/>
   <path class="fil0" d="M1018 710l-75 -76c11,-22 16,-33 23,-60 9,-35 14,-72 14,-110 0,-27 -2,-53 -7,-79 -4,-26 -11,-51 -20,-74 -9,-23 -20,-46 -33,-65 -14,-19 -29,-36 -48,-49 -17,-23 -37,-41 -61,-54 -24,-14 -52,-21 -82,-22 -35,0 -66,8 -92,26 -27,17 -49,40 -66,68 -17,29 -31,62 -40,99 -9,36 -13,74 -13,112 0,27 2,53 6,79 5,26 11,51 20,74 9,22 19,44 33,63 13,18 29,35 46,48 17,22 37,39 60,52 22,13 49,20 79,21 37,1 69,-8 96,-25 8,-5 15,-10 22,-16l0 -1 0 0 0 -1 1 0 0 0 0 -1 0 0 0 0 0 -1 1 0 0 -1 0 0 0 -1 0 0 1 0 0 -1 0 0 0 0 0 -1 0 0 1 0 0 -1 0 0 0 0 1 -1 0 0 0 0 0 0 1 0 0 -1 0 0 0 0 1 -1 0 0 0 0 0 -1 0 0 1 0 0 -1 0 0 1 0 0 0 0 -1 0 0 1 0 0 0 0 -1 1 0 0 0 0 -1 0 0 1 0 0 -1 0 0 0 0 1 -1 0 0 0 0 1 0 0 -1 0 0 1 0 0 0 1 -1 0 0 0 0 1 -1 0 0 0 0 0 0 0 -1 0 0 1 0 0 0 0 0 0 0 -47 -47 -5 5c-10,11 -22,21 -34,28 -27,17 -56,26 -91,25 -32,-1 -61,-10 -85,-26 -24,-18 -45,-39 -60,-67 -17,-27 -28,-58 -36,-93 -8,-35 -10,-69 -10,-105 1,-37 5,-72 14,-106 9,-34 21,-65 38,-92 16,-27 37,-48 62,-65 24,-15 53,-23 85,-23 33,1 62,10 86,26 26,18 46,40 62,67 17,27 29,58 38,92 8,35 12,70 11,106 0,36 -3,71 -12,106 -8,28 -17,54 -31,78l118 116 0 0 1 -1 1 0 0 -1 1 0 1 -1 0 -1 1 -1 1 -1 1 0 1 -1 2 -3 0 0 1 0 0 -1 1 -1 1 0 0 0 1 0 1 -1 1 -1 1 0z"/>
   <path class="fil0" d="M769 19c5,0 13,3 23,9 11,6 21,12 31,21 11,8 19,16 28,25 8,9 12,16 12,21 0,5 -4,8 -11,10 -7,2 -15,3 -25,3 -11,0 -20,-1 -32,-2 -11,-2 -19,-4 -26,-7 -7,3 -15,4 -26,5 -10,1 -20,1 -30,1 -10,0 -18,-1 -26,-3 -7,-1 -11,-3 -11,-6 0,-3 0,-5 2,-7 -11,0 -21,0 -30,-2 -8,-2 -12,-4 -12,-7 -1,-6 3,-13 10,-21 8,-9 18,-18 28,-25 11,-9 22,-16 31,-22 11,-5 19,-9 23,-9 4,0 9,2 16,6 6,2 12,6 20,11 1,0 2,0 3,0 0,0 1,-1 2,-1zm-41 -4c-3,0 -10,3 -20,8 -8,5 -17,11 -27,17 -9,7 -17,14 -24,22 -7,6 -10,12 -10,17 0,2 4,4 12,4 8,0 16,0 26,-1 10,-1 18,-3 27,-5 9,-2 15,-4 16,-7 6,3 13,5 23,7 8,2 18,4 27,5 8,2 16,2 22,2 7,0 10,-2 10,-5 0,-5 -4,-11 -11,-17 -7,-8 -15,-15 -23,-22 -10,-6 -19,-12 -27,-17 -10,-5 -16,-8 -21,-8z"/>
   <path class="fil1" d="M952 754l16 19c-5,13 -5,26 -6,40 -7,-11 -11,-24 -22,-32 -46,-13 -61,-34 -50,-60 6,-9 10,-14 15,-17l47 50z"/>
   <path class="fil1" d="M977 845c26,22 166,-105 100,-135 -51,-34 -130,93 -100,135z"/>
   <path class="fil1" d="M1009 853c-32,27 -9,75 36,56 56,-24 145,-138 67,-169 -10,31 -46,85 -103,113z"/>
   <path class="fil1" d="M1045 922c-7,98 201,-75 110,-123 -17,48 -49,90 -110,123z"/>
   <path class="fil1" d="M968 853l21 3c-13,44 2,65 46,67 8,41 33,45 72,22 12,10 23,20 34,27 32,-11 50,-40 56,-62l-24 -26c8,-8 12,-20 15,-31 61,88 -83,207 -141,105 -11,-5 -15,-11 -22,-25 -39,0 -59,-47 -57,-80z"/>
  </g>
 </g>
</svg>
