<?xml version="1.0" encoding="UTF-8"?>
<!DOCTYPE svg PUBLIC "-//W3C//DTD SVG 1.1//EN" "http://www.w3.org/Graphics/SVG/1.1/DTD/svg11.dtd">
<!-- Creator: CorelDRAW X8 -->
<svg xmlns="http://www.w3.org/2000/svg" xml:space="preserve" width="88.5612mm" height="17.8646mm" version="1.1" style="shape-rendering:geometricPrecision; text-rendering:geometricPrecision; image-rendering:optimizeQuality; fill-rule:evenodd; clip-rule:evenodd"
viewBox="0 0 8856 1786"
 xmlns:xlink="http://www.w3.org/1999/xlink">
 <defs>
  <style type="text/css">
   <![CDATA[
    .fil1 {fill:white}
    .fil0 {fill:white;fill-rule:nonzero}
   ]]>
  </style>
 </defs>
 <g id="Camada_x0020_1">
  <metadata id="CorelCorpID_0Corel-Layer"/>
  <g id="_1226153900960">
   <path class="fil0" d="M5034 735c21,21 45,28 70,22 25,-7 47,-22 67,-45 20,-24 36,-53 47,-88 12,-34 14,-69 8,-104 -5,-35 -22,-67 -49,-97 -27,-30 -69,-52 -126,-67 -80,-20 -153,-20 -218,-1 -65,18 -121,49 -167,93 -47,44 -84,96 -111,157 -27,62 -42,125 -45,191 -3,58 3,101 17,131 13,29 35,52 64,70 28,18 65,33 109,46 44,14 95,33 153,57 33,14 52,28 56,44 4,16 -4,27 -24,35 -19,7 -50,8 -92,1 -41,-6 -91,-25 -150,-56 -18,-9 -36,-8 -55,3 -18,10 -33,26 -43,46 -10,20 -14,42 -11,66 3,24 17,44 43,60 41,26 83,46 127,58 43,13 86,20 127,21 41,1 80,-3 117,-13 37,-9 69,-22 96,-39 28,-17 50,-38 66,-63 17,-25 26,-53 28,-82 2,-50 -7,-89 -28,-116 -20,-28 -47,-49 -80,-63 -33,-15 -68,-26 -107,-34 -39,-8 -75,-17 -108,-27 -32,-11 -59,-25 -80,-43 -21,-18 -31,-45 -29,-82 1,-17 5,-36 12,-57 7,-21 16,-40 29,-57 13,-17 28,-31 46,-43 19,-12 40,-18 64,-18 24,0 50,7 80,22 29,14 62,38 97,72zm59 90c-34,-31 -64,-54 -90,-68 -27,-13 -51,-20 -72,-20 -21,0 -39,5 -55,15 -15,11 -28,23 -39,39 -11,15 -19,31 -25,50 -6,18 -10,35 -10,50 -1,5 -1,13 1,22 14,5 29,10 46,14 17,5 35,9 52,13 24,6 48,12 71,18 24,7 46,14 67,24 21,9 40,21 58,34 18,14 32,31 43,52 29,16 53,39 70,69 18,29 26,69 24,119 -2,32 -11,62 -28,88 -17,27 -40,49 -69,68 -28,20 -62,35 -100,45 -37,11 -77,16 -119,16 -45,0 -92,-6 -139,-19 -48,-14 -95,-34 -141,-63 -24,-16 -40,-35 -48,-59 -5,-2 -10,-4 -13,-6 -4,-3 -8,-5 -12,-8 -20,-13 -34,-28 -42,-44 -8,-17 -13,-34 -13,-52 0,-19 5,-37 14,-55 8,-18 20,-33 34,-45 14,-12 30,-20 46,-23 17,-4 33,-2 49,5 40,22 76,37 107,46 32,9 59,13 81,13 -11,-4 -21,-7 -31,-11 -11,-3 -20,-6 -29,-9 -50,-16 -92,-32 -125,-48 -33,-16 -58,-41 -74,-74 -17,-10 -32,-21 -44,-33 -13,-13 -23,-28 -31,-45 -9,-18 -14,-39 -17,-63 -3,-24 -4,-52 -2,-86 3,-60 16,-118 38,-175 22,-57 52,-107 91,-152 39,-45 85,-80 139,-107 54,-27 114,-41 181,-41 42,0 82,5 120,15 40,12 72,27 99,47 26,20 47,42 63,68 35,22 62,49 79,81 18,32 27,64 27,97 0,28 -5,56 -15,83 -10,28 -22,52 -38,74 -16,21 -33,39 -53,51 -20,13 -39,19 -59,19 -11,0 -23,-2 -35,-6 -12,-5 -23,-12 -34,-23l2 0z"/>
   <path id="1" class="fil0" d="M5984 1091c-17,18 -36,33 -58,47 -22,13 -47,24 -72,33 -26,8 -53,15 -81,19 -28,5 -55,7 -82,7 -8,-26 -13,-54 -17,-82 -3,-27 -6,-56 -8,-84 26,6 49,9 71,10 21,1 38,0 51,-4 20,-5 36,-14 48,-27 12,-14 21,-29 26,-45 6,-17 8,-34 7,-52 -1,-19 -4,-35 -10,-49 -6,-14 -15,-25 -25,-34 -11,-8 -24,-11 -39,-9 -28,5 -53,8 -75,11 -21,2 -40,3 -57,3 0,-40 -1,-80 -3,-121 -2,-41 -6,-82 -13,-123 25,1 51,5 76,12 25,7 49,16 72,26 23,10 44,21 63,34 19,12 36,24 51,37 30,29 58,44 84,46 26,2 48,-5 66,-20 18,-15 32,-37 41,-66 9,-28 11,-58 6,-90 -5,-32 -18,-64 -38,-96 -20,-31 -49,-59 -87,-83 -1,-1 -2,-1 -3,-1 -57,-30 -115,-46 -175,-50 -60,-4 -117,3 -171,22 -54,19 -103,47 -147,85 -44,38 -78,85 -103,140 -6,13 -8,26 -7,40 1,15 5,27 11,36 6,10 15,16 26,17 12,1 25,-6 39,-20 7,-5 14,-11 21,-16 7,-6 14,-11 22,-16 1,65 -3,125 -11,181 -8,56 -17,109 -26,161 -9,51 -14,101 -17,150 -3,48 2,98 16,148 4,15 11,29 22,41 1,0 1,0 1,1 15,19 37,33 67,44 30,10 64,17 102,21 37,4 77,4 119,1 41,-2 82,-8 120,-17 39,-9 74,-20 105,-34 32,-14 56,-30 74,-49 22,-23 34,-50 37,-82 3,-31 -1,-59 -11,-82 -9,-24 -24,-39 -44,-47 -19,-7 -41,2 -64,26zm-17 -14c22,-23 45,-34 68,-34 19,0 35,7 49,20 15,14 26,32 33,55 25,3 45,17 60,42 15,26 23,55 23,87 0,20 -3,40 -10,60 -6,21 -18,40 -34,58 -16,16 -38,32 -65,45 -27,14 -58,26 -91,35 -34,9 -69,16 -106,21 -37,5 -74,7 -109,7 -54,0 -104,-6 -149,-19 -46,-12 -80,-32 -102,-58 -8,-10 -15,-22 -21,-34 -11,-5 -20,-11 -29,-18 -9,-7 -17,-14 -24,-22 -12,-14 -20,-30 -25,-48 -7,-23 -11,-45 -14,-67 -2,-22 -3,-45 -3,-67 0,-38 2,-74 7,-109 5,-35 11,-72 18,-109 4,-24 9,-49 13,-74 4,-25 7,-51 10,-77 -11,-6 -20,-16 -26,-28 -7,-13 -11,-27 -12,-43 -4,1 -9,2 -15,2 -12,0 -22,-4 -31,-12 -9,-8 -15,-18 -20,-30 -5,-13 -8,-26 -8,-41 0,-14 3,-28 8,-41 18,-38 42,-73 72,-105 29,-32 62,-60 98,-83 37,-24 75,-42 116,-55 40,-12 82,-19 124,-19 75,0 148,19 219,56 20,12 37,25 52,40 15,15 28,30 39,46 43,29 74,63 93,103 18,40 28,78 28,116 0,22 -3,43 -9,64 -6,20 -15,37 -26,52 -11,14 -24,26 -40,35 -15,9 -32,13 -50,13 -35,0 -71,-17 -111,-51 -25,-21 -58,-41 -97,-61 -40,-20 -81,-33 -123,-39 2,19 4,39 6,58 2,19 3,38 4,57 5,-1 10,-2 16,-3 5,0 11,-1 18,-3 24,-4 43,1 60,16 16,14 27,34 34,57 25,2 44,15 58,39 14,24 22,51 22,80 0,30 -8,58 -23,86 -15,28 -40,47 -75,55l0 -1c-27,8 -62,8 -104,1 0,6 0,12 1,19 0,6 1,13 2,20 40,-7 78,-18 114,-33 36,-16 65,-36 87,-61zm-364 -871c-8,4 -5,9 8,14 13,5 31,10 54,14 23,4 49,7 78,8 29,2 56,0 80,-4 25,-3 45,-11 61,-21 15,-10 22,-25 19,-43 -3,-21 -12,-35 -27,-41 -16,-7 -34,-10 -54,-9 -21,2 -43,7 -66,14 -24,8 -46,17 -68,26 -21,9 -40,18 -56,27 -15,8 -25,13 -29,15zm-10 -19c4,-3 16,-9 33,-18 18,-8 39,-18 62,-28 24,-11 49,-20 75,-28 27,-7 51,-11 72,-11 33,0 58,9 74,29 22,0 42,5 58,15 16,10 26,27 31,53 2,16 -1,31 -9,43 -9,12 -21,22 -36,30 -16,7 -34,12 -54,16 -20,3 -41,5 -62,5 -39,0 -73,-4 -104,-12 -31,-8 -53,-17 -67,-28 -35,-8 -61,-18 -76,-31 -16,-12 -15,-24 3,-35z"/>
   <path id="2" class="fil0" d="M6738 705c4,49 0,87 -10,116 -11,28 -26,49 -45,62 -19,13 -41,21 -64,23 -24,2 -45,0 -65,-4 3,-52 5,-104 6,-154 1,-51 -4,-100 -16,-149 -1,-2 -2,-4 -2,-4 0,-1 0,-2 -1,-4 21,-9 44,-15 66,-15 23,-1 43,4 62,12 18,9 34,23 46,43 12,20 20,44 23,74zm91 307c24,-12 45,-27 66,-45 20,-18 37,-40 53,-65 16,-25 28,-53 37,-86 9,-32 13,-69 13,-110 0,-51 -6,-99 -20,-143 -13,-45 -34,-84 -61,-117 -28,-34 -64,-60 -107,-79 -43,-19 -94,-29 -153,-29 -64,0 -120,10 -168,31 -48,20 -88,48 -122,86 -33,37 -59,82 -77,135 -18,53 -28,112 -31,178 -2,32 4,56 18,72 14,15 30,24 48,24 17,1 34,-6 50,-18 17,-13 26,-32 29,-56 6,-40 18,-75 35,-105 -3,46 -11,92 -23,141 -12,48 -23,98 -35,148 -11,50 -20,99 -28,149 -7,49 -9,97 -5,143 2,28 11,50 27,66 17,17 36,29 57,36 22,6 44,9 68,8 23,-2 44,-7 61,-16 18,-9 31,-21 39,-36 9,-15 8,-33 -2,-55 -17,-37 -29,-74 -36,-112 -6,-37 -10,-75 -12,-113 36,6 72,14 107,24 35,9 66,23 93,41 26,18 47,39 61,65 15,26 21,58 17,95 -2,17 1,32 10,47 9,15 20,27 35,37 15,10 31,17 49,21 17,5 34,5 50,1 17,-4 30,-13 42,-26 11,-13 17,-32 19,-56 3,-30 0,-58 -10,-86 -10,-27 -24,-53 -42,-76 -19,-24 -41,-45 -67,-66 -26,-20 -55,-37 -85,-53zm-172 -696c70,0 128,13 176,37 49,25 87,58 117,100 50,34 86,80 109,138 23,57 35,120 35,189 0,73 -13,134 -39,183 -26,48 -59,87 -98,115 14,15 26,28 37,41 42,33 75,71 100,114 25,43 37,88 35,135 -4,37 -16,64 -35,81 -20,16 -43,24 -71,24 -26,0 -52,-8 -78,-25 -25,-17 -44,-39 -56,-64 -22,-11 -42,-27 -58,-49 -17,-21 -25,-44 -25,-69 2,-28 -3,-53 -14,-73 -20,-12 -43,-22 -68,-30 -25,-8 -51,-14 -77,-19 2,33 6,64 12,96 7,31 18,62 33,94 10,21 13,41 9,58 -4,17 -12,32 -26,43 -13,12 -29,21 -50,27 -20,7 -40,10 -62,10 -31,0 -62,-7 -90,-22 -29,-15 -50,-38 -63,-69 -23,-10 -41,-24 -57,-43 -15,-18 -24,-42 -27,-70 -1,-8 -1,-16 -1,-25 0,-8 0,-16 0,-24 0,-44 3,-88 11,-133 7,-45 16,-89 27,-133 -25,-13 -41,-35 -50,-66 -22,-4 -40,-16 -56,-35 -16,-20 -22,-48 -20,-86 2,-68 14,-130 33,-186 20,-55 47,-102 82,-142 35,-39 78,-69 129,-90 51,-21 109,-32 176,-32zm59 390c-2,-14 -4,-25 -6,-32 -5,-1 -9,-2 -13,-3 -3,0 -7,0 -12,0 -12,0 -26,2 -43,7 9,46 14,97 14,151l0 43c19,-10 35,-27 48,-53 13,-25 17,-63 12,-113z"/>
   <path id="3" class="fil0" d="M7804 1056c-27,23 -55,42 -85,57 -31,14 -62,24 -93,30 -8,-38 -13,-76 -15,-116 -3,-41 -4,-82 -4,-123 0,-42 0,-85 -1,-128 0,-44 -3,-88 -6,-132 33,19 60,38 82,58 30,27 58,42 84,44 26,2 49,-5 67,-20 19,-15 32,-37 41,-66 8,-28 10,-58 6,-90 -5,-32 -17,-64 -37,-96 -20,-31 -49,-59 -88,-83 -1,0 -1,0 -2,0 0,-1 -1,-1 -2,-1 -56,-30 -114,-46 -174,-49 -59,-4 -116,4 -170,22 -54,18 -103,46 -147,85 -44,39 -79,85 -103,139 -6,14 -8,28 -7,42 1,14 4,26 11,35 6,9 15,15 26,16 11,2 24,-4 39,-18 31,-30 65,-49 102,-59 36,-10 72,-13 108,-9 2,52 1,101 -3,147 -5,46 -10,91 -17,133 -7,43 -13,84 -19,125 -6,40 -9,79 -9,119 -24,-10 -44,-23 -62,-39 -30,-28 -58,-45 -83,-50 -25,-4 -46,-1 -63,9 -16,11 -28,28 -35,50 -7,23 -7,48 -1,76 6,28 19,56 40,85 21,29 51,55 89,77 2,0 4,1 5,2 55,29 113,46 173,49 60,4 117,-4 171,-23 53,-18 102,-46 146,-84 43,-38 78,-84 104,-139 5,-13 8,-27 7,-41 -1,-15 -5,-27 -10,-36 -6,-10 -15,-15 -26,-16 -11,-1 -24,5 -39,18zm-15 -16c17,-15 32,-24 46,-26 13,-2 25,-1 35,5 10,6 18,15 24,28 5,13 8,27 8,41 15,-5 28,-4 39,3 12,7 20,17 26,30 6,12 9,27 9,44 0,16 -4,33 -10,48 -19,41 -43,78 -72,110 -29,32 -61,59 -97,81 -37,23 -75,40 -117,52 -41,12 -83,17 -126,17 -75,0 -148,-18 -219,-55l4 4c-46,-27 -81,-59 -106,-94 -41,-31 -70,-65 -89,-101 -18,-36 -27,-69 -27,-100 0,-35 10,-64 28,-87 19,-24 44,-36 75,-36 18,0 37,5 57,14 20,10 41,25 64,45 8,8 16,14 25,19 2,-28 5,-57 9,-86 3,-30 8,-59 13,-89 5,-32 10,-66 15,-102 4,-36 8,-72 10,-109 -36,10 -69,29 -99,56 -18,15 -36,23 -53,23 -17,0 -32,-8 -42,-23 -11,-15 -17,-32 -18,-52 -3,1 -7,2 -13,2 -13,0 -24,-4 -33,-12 -8,-8 -15,-18 -20,-30 -5,-13 -7,-26 -7,-40 0,-14 2,-28 8,-42 19,-41 43,-78 72,-109 29,-32 61,-60 97,-82 37,-23 75,-40 117,-52 41,-11 83,-17 126,-17 75,0 150,19 225,59 35,23 63,50 84,79 43,30 74,65 92,105 19,40 28,78 28,116 0,22 -3,43 -8,64 -6,20 -15,37 -26,52 -11,16 -25,28 -41,36 -15,9 -32,14 -51,14 -17,0 -34,-4 -53,-13 -19,-8 -38,-21 -57,-39 -12,-11 -26,-21 -41,-32 1,28 2,57 2,87 0,29 0,58 0,86 0,29 0,57 0,83 0,27 1,54 3,81 29,-13 57,-32 84,-56zm-16 -663c-6,-4 -9,-7 -10,-8 5,0 8,1 9,3 1,2 1,4 1,5zm63 66c1,1 5,3 11,7 0,-1 -1,-2 -2,-4 -1,-2 -4,-3 -9,-3z"/>
   <path id="4" class="fil0" d="M8639 1091c-17,18 -36,33 -58,47 -22,13 -46,24 -72,33 -26,8 -53,15 -81,19 -28,5 -55,7 -82,7 -7,-26 -13,-54 -16,-82 -4,-27 -7,-56 -9,-84 26,6 49,9 71,10 22,1 39,0 51,-4 20,-5 36,-14 48,-27 13,-14 21,-29 27,-45 5,-17 7,-34 6,-52 -1,-19 -4,-35 -10,-49 -6,-14 -14,-25 -25,-34 -11,-8 -23,-11 -38,-9 -29,5 -54,8 -75,11 -22,2 -41,3 -57,3 0,-40 -1,-80 -3,-121 -2,-41 -7,-82 -14,-123 26,1 51,5 76,12 25,7 49,16 72,26 23,10 44,21 63,34 19,12 36,24 51,37 30,29 59,44 85,46 26,2 48,-5 66,-20 18,-15 31,-37 40,-66 9,-28 11,-58 6,-90 -5,-32 -17,-64 -37,-96 -21,-31 -50,-59 -88,-83 -1,-1 -2,-1 -3,-1 -57,-30 -115,-46 -175,-50 -60,-4 -116,3 -170,22 -54,19 -103,47 -147,85 -45,38 -79,85 -103,140 -6,13 -9,26 -8,40 1,15 5,27 11,36 7,10 16,16 27,17 11,1 24,-6 39,-20 7,-5 14,-11 20,-16 7,-6 15,-11 22,-16 1,65 -2,125 -11,181 -8,56 -17,109 -25,161 -9,51 -15,101 -18,150 -3,48 2,98 16,148 4,15 11,29 22,41 1,0 2,0 2,1 14,19 37,33 67,44 30,10 63,17 101,21 38,4 78,4 119,1 42,-2 82,-8 121,-17 38,-9 73,-20 105,-34 31,-14 56,-30 73,-49 22,-23 34,-50 37,-82 3,-31 0,-59 -10,-82 -10,-24 -25,-39 -44,-47 -20,-7 -41,2 -65,26zm-16 -14c21,-23 44,-34 68,-34 18,0 35,7 49,20 14,14 25,32 33,55 24,3 44,17 59,42 16,26 23,55 23,87 0,20 -3,40 -9,60 -7,21 -18,40 -35,58 -16,16 -37,32 -65,45 -27,14 -57,26 -91,35 -33,9 -68,16 -106,21 -37,5 -73,7 -108,7 -54,0 -104,-6 -150,-19 -45,-12 -79,-32 -102,-58 -8,-10 -15,-22 -20,-34 -11,-5 -21,-11 -30,-18 -9,-7 -17,-14 -23,-22 -12,-14 -20,-30 -25,-48 -7,-23 -12,-45 -14,-67 -3,-22 -4,-45 -4,-67 0,-38 2,-74 7,-109 5,-35 11,-72 18,-109 5,-24 9,-49 13,-74 4,-25 8,-51 10,-77 -10,-6 -19,-16 -26,-28 -7,-13 -11,-27 -12,-43 -4,1 -9,2 -14,2 -12,0 -23,-4 -31,-12 -9,-8 -16,-18 -21,-30 -5,-13 -7,-26 -7,-41 0,-14 2,-28 7,-41 19,-38 43,-73 72,-105 30,-32 62,-60 99,-83 36,-24 74,-42 115,-55 41,-12 82,-19 124,-19 76,0 149,19 219,56 20,12 37,25 53,40 15,15 28,30 39,46 43,29 74,63 92,103 19,40 28,78 28,116 0,22 -3,43 -9,64 -6,20 -14,37 -25,52 -12,14 -25,26 -40,35 -15,9 -32,13 -51,13 -34,0 -71,-17 -110,-51 -26,-21 -58,-41 -98,-61 -40,-20 -81,-33 -123,-39 2,19 4,39 6,58 2,19 4,38 5,57 5,-1 10,-2 15,-3 5,0 12,-1 18,-3 24,-4 44,1 60,16 16,14 28,34 35,57 24,2 43,15 58,39 14,24 21,51 21,80 0,30 -8,58 -23,86 -15,28 -40,47 -74,55l0 -1c-28,8 -62,8 -105,1 0,6 1,12 1,19 1,6 1,13 2,20 41,-7 79,-18 114,-33 36,-16 65,-36 88,-61z"/>
   <path class="fil0" d="M2758 341c-3,38 -2,78 2,119 4,41 9,83 17,126 7,42 15,85 24,128 9,42 16,84 20,125 1,9 2,18 2,27 0,9 0,18 0,28 -36,-47 -71,-101 -104,-160 -33,-60 -61,-119 -86,-177 -25,-58 -46,-110 -61,-157 -15,-47 -23,-82 -23,-105 -2,-22 -15,-39 -39,-51 -23,-12 -47,-16 -74,-14 -26,2 -51,13 -74,31 -23,18 -36,45 -39,80 -2,25 -4,59 -7,99 -3,41 -6,86 -9,135 -3,49 -5,100 -7,155 -1,54 -1,108 0,160 2,53 5,103 9,150 4,48 12,89 21,123 6,22 19,42 38,57 19,16 41,28 65,36 24,9 48,13 74,13 25,1 47,-3 66,-11 19,-7 32,-19 40,-36 8,-16 7,-37 -3,-62 -56,-133 -92,-265 -109,-396 28,61 58,121 88,181 31,59 61,113 93,161 40,61 76,104 109,127 32,24 64,36 95,37 16,0 32,-2 48,-6 16,-5 31,-11 43,-20 13,-9 24,-20 33,-34 8,-14 14,-30 16,-50 3,-37 3,-72 0,-103 -3,-31 -7,-62 -13,-93 -5,-31 -11,-63 -17,-95 -7,-33 -12,-68 -17,-108 -4,-70 -2,-141 5,-212 7,-71 27,-141 59,-211 10,-22 10,-40 0,-55 -9,-15 -24,-27 -44,-36 -20,-9 -44,-14 -71,-16 -27,-1 -53,2 -77,9 -25,8 -46,20 -63,36 -18,17 -28,39 -30,65zm-22 -1c2,-23 9,-43 19,-59 11,-17 25,-31 42,-41 17,-11 36,-19 57,-24 20,-5 41,-7 62,-7 18,0 37,2 55,6 18,3 34,9 48,17 14,8 26,17 36,28 10,11 16,23 18,37 28,11 50,27 64,48 14,21 14,46 1,75 -26,55 -43,110 -53,166 -9,55 -14,111 -14,167 0,13 1,27 1,40 1,13 1,27 2,41 4,26 8,51 12,74 4,23 8,46 13,68 7,33 13,66 17,98 5,32 7,67 7,105 0,9 0,18 0,27 0,10 -1,19 -2,29 -2,22 -8,42 -18,59 -10,16 -23,30 -38,41 -15,11 -32,19 -50,23 -18,5 -37,8 -55,8 -30,-1 -59,-10 -89,-27 -29,-16 -60,-45 -92,-86 -19,-14 -38,-32 -57,-54 -19,-22 -39,-49 -59,-82 -1,0 -2,0 -2,-1 6,17 13,35 20,53 7,17 15,36 23,56 10,24 13,45 10,63 -3,18 -10,32 -23,43 -12,12 -28,20 -47,25 -19,6 -39,8 -61,8 -19,0 -39,-2 -59,-6 -19,-5 -38,-11 -55,-20 -18,-9 -34,-20 -48,-32 -14,-13 -25,-28 -33,-45 -20,-10 -37,-23 -51,-39 -14,-15 -24,-33 -29,-53l2 0c-13,-44 -22,-97 -26,-157 -4,-60 -7,-123 -7,-189 0,-48 1,-96 3,-144 2,-48 5,-93 7,-136 2,-42 5,-81 7,-117 3,-35 5,-64 7,-86 2,-24 8,-44 17,-61 9,-16 21,-30 35,-41 14,-11 30,-19 46,-23 17,-5 34,-8 50,-8 29,0 55,7 78,22 24,14 38,34 43,59 20,7 36,17 50,29 14,13 22,29 25,49 0,15 3,35 10,62 7,26 17,56 30,90 12,34 27,70 44,110 16,39 35,78 56,117 -2,-10 -4,-22 -7,-33 -2,-12 -5,-24 -7,-36 -7,-44 -15,-92 -24,-145 -8,-52 -12,-99 -12,-141 0,-8 0,-17 0,-25 0,-9 0,-18 1,-25z"/>
   <path id="1" class="fil0" d="M3373 920c2,-46 7,-89 15,-128 9,-40 20,-74 35,-103 15,-29 32,-52 53,-68 20,-16 43,-24 69,-24 24,0 47,10 67,30 21,20 38,47 53,82 14,34 25,75 32,122 7,47 11,97 10,150 -15,2 -35,3 -61,3 -26,0 -55,-3 -86,-7 -32,-5 -64,-11 -97,-21 -33,-9 -63,-21 -90,-36zm159 -685c-53,1 -99,13 -137,36 -38,23 -70,54 -96,91 -26,38 -47,82 -62,131 -15,50 -27,101 -34,154 -7,53 -12,106 -12,160 -1,54 -1,104 2,151 2,46 6,88 10,123 4,36 9,63 13,80 6,34 21,59 43,78 22,18 44,28 67,29 22,1 41,-6 56,-24 16,-17 20,-44 13,-81 -6,-27 -10,-53 -13,-79 18,5 41,11 69,15 27,4 56,7 85,8 29,1 59,1 88,-1 28,-2 54,-7 77,-15 -2,11 -4,21 -5,30 -1,9 -2,19 -4,30 -8,42 -4,73 12,92 15,19 34,28 57,27 23,-1 45,-11 68,-29 23,-19 39,-45 47,-80 5,-23 10,-54 16,-93 6,-39 10,-82 13,-130 3,-48 4,-99 3,-153 -1,-54 -6,-107 -14,-160 -8,-52 -21,-102 -38,-149 -17,-48 -40,-90 -69,-125 -28,-36 -63,-65 -105,-86 -43,-21 -93,-31 -150,-30zm0 -22c65,-1 121,11 167,36 45,25 83,58 113,99 38,28 69,62 93,103 25,41 44,87 59,136 15,50 25,101 31,155 6,54 9,107 9,159 0,36 -1,71 -3,105 -2,34 -5,66 -8,95 -3,30 -6,56 -10,80 -4,23 -8,43 -12,58 -10,42 -28,73 -56,94 -27,22 -55,33 -83,33 -21,0 -40,-6 -56,-19 -17,-12 -28,-31 -33,-56 -19,-3 -36,-12 -50,-26 -15,-14 -23,-35 -26,-62l-25 0c-28,0 -55,-2 -84,-5 -28,-3 -54,-7 -76,-12 1,7 2,15 3,23 2,9 3,16 5,23 9,45 4,78 -15,100 -19,22 -43,32 -71,32 -23,0 -46,-7 -69,-22 -24,-14 -42,-36 -55,-63 -19,-9 -38,-23 -54,-42 -17,-19 -28,-43 -33,-71 -4,-25 -10,-65 -16,-122 -6,-57 -9,-121 -9,-193 0,-47 2,-95 6,-145 4,-49 11,-97 22,-144 10,-48 24,-92 42,-134 17,-42 40,-79 66,-111 27,-31 60,-56 97,-75 37,-18 81,-28 131,-29zm153 748c0,-54 -5,-105 -14,-150 -9,-46 -21,-84 -36,-116 -6,-2 -12,-3 -17,-3 -39,0 -71,23 -96,69 -25,45 -41,104 -49,175 33,9 66,16 98,20 33,3 62,5 87,5 11,0 16,1 17,1 0,1 4,0 10,-1z"/>
   <path class="fil0" d="M566 225c43,10 78,26 106,45 26,21 47,41 61,66 38,22 64,50 78,83 16,31 24,66 24,99 0,30 -5,57 -15,83 -11,28 -23,53 -39,73 -14,21 -31,39 -52,51 -19,12 -38,19 -59,19 -12,0 -22,-2 -35,-7 -12,-4 -22,-12 -33,-21 -15,-14 -29,-26 -46,-38 -16,-11 -30,-21 -44,-28 4,33 11,71 19,111 7,38 16,78 25,115 13,59 27,120 38,181 12,62 15,121 10,178 -2,23 -7,44 -17,60 -11,15 -23,29 -38,39 -16,11 -33,20 -51,25 -19,5 -38,7 -57,7 -33,0 -64,-7 -90,-23 -28,-14 -44,-35 -49,-61 -28,-10 -50,-26 -64,-48 -14,-21 -14,-49 1,-80 18,-38 32,-78 37,-118 7,-40 10,-80 10,-122 0,-22 -1,-45 -1,-66 -2,-22 -4,-45 -6,-68 -1,-14 -3,-29 -3,-45 0,-15 -2,-29 -2,-45 -10,10 -19,24 -26,37 -9,13 -16,26 -19,39 -9,20 -19,33 -31,42 -12,9 -26,12 -42,12 -19,0 -38,-7 -56,-21 -15,-15 -26,-33 -29,-52 -19,-3 -35,-14 -50,-29 -16,-16 -23,-35 -23,-57 0,-60 10,-117 31,-171 19,-55 49,-102 87,-144 38,-42 85,-75 139,-101 54,-24 115,-36 181,-36 40,0 83,5 130,16l0 0zm-5 22c-80,-21 -153,-22 -221,-5 -66,16 -121,43 -170,83 -47,42 -83,91 -111,150 -26,59 -40,121 -40,186 0,15 5,27 14,38 10,12 21,19 33,22 12,4 24,4 38,-1 12,-6 23,-18 29,-37 7,-16 16,-31 27,-50 10,-18 22,-33 36,-49 16,-14 31,-26 49,-38 19,-11 40,-17 62,-21 -10,52 -12,104 -10,158 3,54 7,106 8,160 4,54 2,108 -3,161 -4,54 -17,106 -43,159 -9,20 -11,38 -2,55 7,16 21,28 38,37 17,8 38,13 61,15 24,0 47,-2 69,-8 21,-7 40,-20 56,-35 15,-18 26,-40 28,-68 5,-49 1,-101 -7,-155 -9,-53 -19,-106 -32,-159 -13,-54 -26,-106 -36,-158 -12,-51 -17,-101 -19,-148 40,17 83,45 128,87 21,21 46,28 70,21 24,-7 48,-23 68,-46 20,-24 36,-52 48,-86 11,-35 12,-70 7,-105 -7,-34 -22,-67 -50,-97 -26,-29 -68,-52 -125,-66z"/>
   <path class="fil1" d="M1275 556c107,6 154,118 151,243 -4,124 -73,263 -191,263 -118,-2 -186,-122 -172,-269 15,-148 104,-242 212,-237zm-77 273c14,-87 59,-144 101,-129 42,14 64,98 50,185 -14,86 -59,144 -100,128 -42,-14 -65,-97 -51,-184z"/>
   <path class="fil0" d="M1763 1270l-136 -135c21,-40 30,-59 42,-108 16,-64 24,-130 24,-198 0,-49 -3,-96 -12,-142 -7,-47 -19,-92 -36,-134 -16,-42 -35,-82 -59,-117 -25,-34 -53,-64 -86,-88 -31,-42 -67,-73 -111,-97 -41,-25 -92,-37 -146,-40 -64,0 -119,15 -166,47 -49,31 -87,73 -118,123 -32,52 -56,111 -72,177 -17,66 -24,134 -24,202 0,48 3,95 10,142 9,47 21,92 37,134 16,40 35,78 59,113 24,33 52,62 83,86 30,39 66,70 108,94 40,23 89,35 142,37 66,1 124,-14 172,-45 14,-9 28,-18 40,-28l0 -2 0 0 0 -2 2 0 0 0 0 -1 0 0 0 0 0 -2 2 0 0 -2 0 0 0 -2 0 0 2 0 0 -1 0 0 0 0 0 -2 0 0 1 0 0 -2 0 0 0 0 2 -2 0 0 0 -1 0 0 2 0 0 -2 0 0 0 0 2 -2 0 0 0 0 0 -2 0 0 1 0 0 -1 0 0 2 0 0 0 0 -2 0 0 2 0 0 0 0 -2 1 0 0 0 0 -1 0 0 2 0 0 -2 0 0 0 0 2 -2 0 0 0 0 2 0 0 -2 0 0 1 0 0 0 2 -1 0 0 0 0 2 -2 0 0 0 0 2 0 0 -2 0 0 1 0 0 0 0 0 0 0 -85 -85 -8 10c-20,20 -40,37 -63,51 -47,29 -101,45 -163,43 -58,-2 -110,-17 -153,-47 -44,-31 -80,-69 -108,-120 -29,-48 -50,-104 -64,-166 -14,-63 -19,-125 -19,-190 2,-66 10,-128 26,-191 16,-60 38,-116 68,-165 29,-48 67,-87 111,-116 43,-28 95,-42 154,-42 59,2 112,18 155,47 45,31 82,71 111,120 30,49 52,104 68,167 14,62 22,125 21,189 0,66 -7,129 -23,191 -14,51 -31,97 -55,141l211 208 0 0 2 -1 2 0 0 -2 2 0 1 -2 0 -2 2 -1 2 -2 2 0 1 -2 6 -5 0 0 1 0 0 -2 2 -2 2 0 0 -1 2 0 1 -2 2 -2 2 0z"/>
   <path class="fil0" d="M1315 28c8,0 22,5 41,16 19,10 38,22 56,38 19,14 35,30 50,45 14,16 21,28 21,39 0,8 -7,13 -19,17 -12,3 -28,5 -45,5 -19,0 -37,-2 -58,-3 -19,-4 -34,-7 -46,-13 -13,6 -28,7 -47,9 -18,2 -37,2 -54,2 -18,0 -33,-2 -47,-5 -12,-2 -19,-6 -19,-11 0,-5 0,-10 3,-14 -21,0 -38,0 -54,-3 -15,-4 -22,-7 -22,-12 -2,-11 5,-23 19,-38 14,-16 31,-32 50,-46 19,-15 39,-27 56,-38 19,-10 33,-17 42,-17 7,0 15,3 27,10 11,5 23,12 37,21 2,0 3,0 5,0 0,0 2,-2 4,-2zm-73 -7c-7,0 -19,6 -37,14 -15,9 -31,19 -48,31 -18,13 -32,25 -44,39 -12,12 -17,22 -17,31 0,3 7,7 21,7 13,0 29,0 46,-2 18,-2 33,-5 49,-8 16,-4 26,-7 30,-13 10,6 22,9 40,13 15,3 33,6 48,8 16,4 30,4 40,4 12,0 18,-4 18,-9 0,-9 -7,-19 -20,-31 -12,-14 -26,-26 -41,-39 -18,-12 -33,-22 -49,-31 -17,-8 -28,-14 -36,-14z"/>
   <path class="fil1" d="M1643 1350l29 35c-8,22 -8,47 -10,71 -12,-19 -21,-43 -40,-57 -83,-25 -109,-61 -90,-108 10,-16 19,-26 28,-31l83 90z"/>
   <path class="fil1" d="M1688 1513c47,40 299,-187 181,-243 -92,-61 -235,169 -181,243z"/>
   <path class="fil1" d="M1745 1527c-57,49 -15,136 66,103 101,-44 261,-249 120,-304 -17,55 -83,151 -186,201z"/>
   <path class="fil1" d="M1811 1652c-12,176 362,-135 198,-220 -31,85 -88,161 -198,220z"/>
   <path class="fil1" d="M1672 1529l39 5c-25,78 3,117 81,120 16,73 61,82 131,40 20,17 41,35 60,49 58,-21 91,-73 101,-111l-43 -47c15,-16 22,-37 27,-56 110,158 -149,372 -253,188 -21,-9 -28,-19 -40,-46 -70,0 -106,-83 -103,-142z"/>
  </g>
 </g>
</svg>
