<?xml version="1.0" encoding="UTF-8"?>
<!DOCTYPE svg PUBLIC "-//W3C//DTD SVG 1.1//EN" "http://www.w3.org/Graphics/SVG/1.1/DTD/svg11.dtd">
<!-- Creator: CorelDRAW X8 -->
<svg xmlns="http://www.w3.org/2000/svg" xml:space="preserve" width="10.8372mm" height="10.8372mm" version="1.1" style="shape-rendering:geometricPrecision; text-rendering:geometricPrecision; image-rendering:optimizeQuality; fill-rule:evenodd; clip-rule:evenodd"
viewBox="0 0 1084 1084"
 xmlns:xlink="http://www.w3.org/1999/xlink">
 <defs>
  <style type="text/css">
   <![CDATA[
    .fil1 {fill:#FF6600}
    .fil0 {fill:white}
    .fil2 {fill:#171717;fill-rule:nonzero}
   ]]>
  </style>
 </defs>
 <g id="Camada_x0020_1">
  <metadata id="CorelCorpID_0Corel-Layer"/>
  <rect class="fil0" width="1084" height="1084" rx="128" ry="85"/>
  <g id="_170294392">
   <path class="fil1" d="M424 348c62,3 89,68 87,140 -2,71 -42,151 -110,151 -68,-1 -107,-70 -99,-155 9,-85 60,-139 122,-136zm-44 157c8,-50 34,-83 58,-74 24,8 37,56 29,106 -8,50 -34,83 -58,74 -24,-8 -37,-56 -29,-106z"/>
   <path class="fil2" d="M705 759l-78 -78c12,-23 17,-34 24,-62 9,-37 14,-75 14,-114 0,-28 -2,-55 -7,-82 -4,-27 -11,-53 -21,-77 -9,-24 -20,-47 -34,-67 -14,-20 -30,-37 -49,-51 -18,-24 -39,-42 -64,-56 -24,-14 -53,-21 -84,-23 -37,0 -69,9 -96,27 -28,18 -50,42 -68,71 -18,30 -32,64 -41,102 -10,38 -14,77 -14,116 0,28 2,55 6,82 5,27 12,53 21,77 9,23 20,45 34,65 14,19 30,36 48,50 17,22 38,40 62,54 23,13 51,20 82,21 38,1 71,-8 99,-26 8,-5 16,-10 23,-16l0 -1 0 0 0 -1 1 0 0 0 0 -1 0 0 0 0 0 -1 1 0 0 -1 0 0 0 -1 0 0 1 0 0 -1 0 0 0 0 0 -1 0 0 1 0 0 -1 0 0 0 0 1 -1 0 0 0 -1 0 0 1 0 0 -1 0 0 0 0 1 -1 0 0 0 0 0 -1 0 0 1 0 0 -1 0 0 1 0 0 0 0 -1 0 0 1 0 0 0 0 -1 1 0 0 0 0 -1 0 0 1 0 0 -1 0 0 0 0 1 -1 0 0 0 0 1 0 0 -1 0 0 1 0 0 0 1 -1 0 0 0 0 1 -1 0 0 0 0 1 0 0 -1 0 0 1 0 0 0 0 0 0 0 -49 -49 -5 6c-11,11 -23,21 -36,29 -27,17 -58,26 -94,25 -33,-1 -63,-10 -88,-27 -25,-18 -46,-40 -62,-69 -17,-28 -29,-60 -37,-96 -8,-36 -11,-72 -11,-109 1,-38 6,-74 15,-110 9,-35 22,-67 39,-95 17,-28 39,-50 64,-67 25,-16 55,-24 89,-24 34,1 64,10 89,27 26,18 47,41 64,69 17,28 30,60 39,96 8,36 13,72 12,109 0,38 -4,74 -13,110 -8,29 -18,56 -32,81l122 120 0 0 1 -1 1 0 0 -1 1 0 1 -1 0 -1 1 -1 1 -1 1 0 1 -1 3 -3 0 0 1 0 0 -1 1 -1 1 0 0 -1 1 0 1 -1 1 -1 1 0z"/>
   <path class="fil2" d="M447 43c5,0 13,3 24,9 11,6 22,13 32,22 11,8 20,17 29,26 8,9 12,16 12,22 0,5 -4,8 -11,10 -7,2 -16,3 -26,3 -11,0 -21,-1 -33,-2 -11,-2 -20,-4 -27,-7 -7,3 -16,4 -27,5 -10,1 -21,1 -31,1 -10,0 -19,-1 -27,-3 -7,-1 -11,-3 -11,-6 0,-3 0,-6 2,-8 -12,0 -22,0 -31,-2 -9,-2 -13,-4 -13,-7 -1,-6 3,-13 11,-22 8,-9 18,-18 29,-26 11,-9 22,-16 32,-22 11,-6 19,-10 24,-10 4,0 9,2 16,6 6,3 13,7 21,12 1,0 2,0 3,0 0,0 1,-1 2,-1zm-42 -4c-4,0 -11,3 -21,8 -9,5 -18,11 -28,18 -10,7 -18,14 -25,22 -7,7 -10,13 -10,18 0,2 4,4 12,4 8,0 17,0 27,-1 10,-1 19,-3 28,-5 9,-2 15,-4 17,-7 6,3 13,5 23,7 9,2 19,4 28,5 9,2 17,2 23,2 7,0 10,-2 10,-5 0,-5 -4,-11 -11,-18 -7,-8 -15,-15 -24,-22 -10,-7 -19,-13 -28,-18 -10,-5 -16,-8 -21,-8z"/>
   <path class="fil1" d="M636 805l17 20c-5,13 -5,27 -6,41 -7,-11 -12,-25 -23,-33 -48,-14 -63,-35 -52,-62 6,-9 11,-15 16,-18l48 52z"/>
   <path class="fil1" d="M662 899c27,23 173,-108 104,-140 -53,-35 -135,97 -104,140z"/>
   <path class="fil1" d="M695 907c-33,28 -9,78 38,59 58,-25 151,-143 69,-175 -10,32 -48,87 -107,116z"/>
   <path class="fil1" d="M733 979c-7,101 209,-78 115,-127 -18,49 -52,93 -115,127z"/>
   <path class="fil1" d="M653 908l22 3c-14,45 2,67 47,69 9,42 35,47 75,23 13,10 25,20 36,28 33,-12 52,-42 58,-64l-25 -27c9,-9 13,-21 16,-32 63,91 -87,214 -147,108 -12,-5 -16,-11 -23,-26 -40,0 -61,-48 -59,-82z"/>
  </g>
 </g>
</svg>
