<?xml version="1.0" encoding="UTF-8" standalone="no"?>
<!-- Created with Inkscape (http://www.inkscape.org/) -->

<svg
   xmlns:dc="http://purl.org/dc/elements/1.1/"
   xmlns:cc="http://creativecommons.org/ns#"
   xmlns:rdf="http://www.w3.org/1999/02/22-rdf-syntax-ns#"
   xmlns:svg="http://www.w3.org/2000/svg"
   xmlns="http://www.w3.org/2000/svg"
   xmlns:sodipodi="http://sodipodi.sourceforge.net/DTD/sodipodi-0.dtd"
   xmlns:inkscape="http://www.inkscape.org/namespaces/inkscape"
   width="28.438"
   height="45.436001"
   viewBox="0 0 28.437988 45.436001"
   id="svg2"
   version="1.1"
   inkscape:version="0.91 r13725"
   sodipodi:docname="favicon.svg">
  <defs
     id="defs4" />
  <sodipodi:namedview
     id="base"
     pagecolor="#ffffff"
     bordercolor="#666666"
     borderopacity="1.0"
     inkscape:pageopacity="0.0"
     inkscape:pageshadow="2"
     inkscape:zoom="6.2111062"
     inkscape:cx="27.424182"
     inkscape:cy="32.474639"
     inkscape:document-units="px"
     inkscape:current-layer="layer1"
     showgrid="false"
     inkscape:window-width="1366"
     inkscape:window-height="739"
     inkscape:window-x="0"
     inkscape:window-y="0"
     inkscape:window-maximized="1"
     units="px" />
  <metadata
     id="metadata7">
    <rdf:RDF>
      <cc:Work
         rdf:about="">
        <dc:format>image/svg+xml</dc:format>
        <dc:type
           rdf:resource="http://purl.org/dc/dcmitype/StillImage" />
        <dc:title></dc:title>
      </cc:Work>
    </rdf:RDF>
  </metadata>
  <g
     inkscape:label="Camada 1"
     inkscape:groupmode="layer"
     id="layer1"
     transform="translate(0,-1006.926)">
    <path
       style="font-style:normal;font-weight:normal;font-size:37.19098663px;line-height:125%;font-family:sans-serif;letter-spacing:0px;word-spacing:0px;fill:#009688;fill-opacity:1;fill-rule:nonzero;stroke:none;stroke-width:1px;stroke-linecap:butt;stroke-linejoin:miter;stroke-opacity:1"
       d="M 0.06640625 0 L 0.06640625 19 L 4.9433594 19 L 4.9433594 4.3457031 L 23.46875 19 L 28.371094 19 L 28.371094 0 L 23.542969 0 L 23.542969 14.693359 L 4.9433594 0 L 0.06640625 0 z M 0 20.818359 L 0 24.587891 L 28.4375 24.587891 L 28.4375 20.818359 L 0 20.818359 z M 0 26.435547 L 0 45.435547 L 3.75 45.435547 L 3.75 38.023438 L 3.3789062 30.050781 L 12.714844 45.435547 L 15.566406 45.435547 L 24.921875 30.076172 L 24.550781 38.023438 L 24.550781 45.435547 L 28.300781 45.435547 L 28.300781 26.435547 L 23.457031 26.435547 L 14.160156 41.925781 L 4.84375 26.435547 L 0 26.435547 z "
       transform="translate(-5.7220459e-6,1006.926)"
       id="text3336" />
  </g>
</svg>
